<svg xmlns="http://www.w3.org/2000/svg" xmlns:xlink="http://www.w3.org/1999/xlink" width="70" height="70" viewBox="0 0 70 70"><defs><path id="a" d="M4 0h61c4 0 5 1 5 5v60c0 4-1 5-5 5H4c-3 0-4-1-4-5V5c0-4 1-5 4-5z"/><linearGradient id="c" x1="100%" x2="0%" y1="0%" y2="98.616%"><stop offset="0%" stop-color="#797C79"/><stop offset="100%" stop-color="#545554"/></linearGradient></defs><g fill="none" fill-rule="evenodd"><mask id="b" fill="#fff"><use xlink:href="#a"/></mask><g mask="url(#b)"><path fill="url(#c)" d="M0 0H70V70H0z"/><path fill="#FFF" fill-opacity=".383" d="M4 1h61c2.667 0 4.333.667 5 2V0H0v3c.667-1.333 2-2 4-2z"/><path fill="#393939" d="M4 69c-2 0-4-.143-4-4V40.04C12.667 25.345 20.333 16.666 23 14c17-9 25 5 33 16 2 4 1.67 9.532-.991 16.596L37.406 69H4z" opacity=".324"/><path fill="#000" fill-opacity=".383" d="M4 69h61c2.667 0 4.333-1 5-3v4H0v-4c.667 2 2 3 4 3z"/><path fill="#FFF" d="M46.568 18.013c-2.853-1.944-6.37-3.091-10.175-3.091-.534 0-1.061.022-1.582.066a.528.528 0 0 0-.103-.102c-.176-.058-.374-.022-.593.11-.05.025-.076.05-.078.074-.333.043-.663.094-.99.154-.045-.084-.091-.13-.14-.14-.096 0-.193.075-.29.224l-.053.01c-.018-.081-.1-.16-.25-.234a1.58 1.58 0 0 0-.527-.176c.278-.175.22-.373-.175-.592-.103-.059-.253-.096-.45-.11-.198-.015-.34.014-.429.088a.59.59 0 0 0-.12.252c-.008.066.029.125.11.176.08.051.157.091.23.12.073.03.157.06.252.088.096.03.158.052.187.066.205.147.264.25.176.308-.03.014-.092.04-.187.076-.095.037-.18.07-.252.1-.074.029-.118.058-.132.087-.028.037-.038.093-.03.166a18.002 18.002 0 0 0-.212.065c-.058-.183-.11-.304-.153-.363.102.132-.08.176-.55.132l-.219-.022c-.058 0-.176.015-.351.044-.176.03-.326.037-.45.022a.408.408 0 0 1-.297-.176c-.058-.117-.058-.263 0-.439.015-.058.044-.073.088-.044a3.29 3.29 0 0 1-.241-.208 2.142 2.142 0 0 0-.22-.187c-.673.22-1.361.52-2.064.9a.54.54 0 0 0 .263-.022c.074-.029.169-.076.286-.142.117-.066.19-.106.22-.121.497-.205.805-.256.922-.154l.11-.11c.204.235.35.418.439.55-.103-.06-.322-.067-.66-.023-.292.088-.453.176-.482.264.102.176.139.307.11.395a3.43 3.43 0 0 1-.253-.22 1.741 1.741 0 0 0-.318-.241.877.877 0 0 0-.33-.11c-.234 0-.395.008-.483.022a13.856 13.856 0 0 0-5.16 4.875c.103.102.19.16.264.175.058.015.095.08.11.198a.841.841 0 0 0 .055.241c.021.044.106.022.252-.065.132.117.154.256.066.417.011-.011.205.104.583.345-1.987 2.62-3.155 5.818-3.155 9.27 0 4.4 1.897 8.387 4.97 11.29a16.769 16.769 0 0 1-5.845-5.963C16.754 33.744 16 30.923 16 27.863c0-3.06.754-5.88 2.262-8.464a16.787 16.787 0 0 1 6.137-6.137C26.982 11.754 29.804 11 32.863 11c3.06 0 5.881.754 8.465 2.262a16.75 16.75 0 0 1 5.24 4.751z" opacity=".536"/><path fill="#FFF" d="M50.49 22.72c-2.853-1.945-6.37-3.092-10.176-3.092-.533 0-1.06.022-1.582.066a.528.528 0 0 0-.103-.102c-.175-.058-.373-.022-.593.11-.049.025-.075.05-.077.074-.333.043-.663.094-.99.154-.045-.084-.092-.13-.14-.14-.097 0-.193.075-.29.224l-.053.01c-.018-.081-.101-.16-.25-.234a1.58 1.58 0 0 0-.527-.176c.278-.175.22-.373-.176-.592-.102-.059-.252-.096-.45-.11-.197-.015-.34.014-.428.088a.59.59 0 0 0-.12.252c-.008.066.029.125.109.176.08.051.157.091.23.12.074.03.158.06.253.088.095.03.157.052.187.066.205.147.263.25.175.308-.029.014-.091.04-.186.076-.095.037-.18.07-.253.1-.073.029-.117.058-.131.087-.029.037-.039.093-.03.166a18 18 0 0 0-.212.065c-.059-.183-.11-.304-.154-.363.103.132-.08.176-.549.132l-.22-.022c-.058 0-.175.015-.35.044-.176.03-.326.037-.45.022a.408.408 0 0 1-.297-.176c-.059-.117-.059-.263 0-.439.015-.058.044-.073.088-.044a3.29 3.29 0 0 1-.242-.208 2.142 2.142 0 0 0-.22-.187c-.673.22-1.36.52-2.063.9a.54.54 0 0 0 .263-.022c.073-.029.168-.076.286-.142.117-.066.19-.106.22-.121.497-.205.804-.256.921-.154l.11-.11c.205.235.351.418.44.55-.103-.06-.323-.067-.66-.023-.292.088-.453.176-.482.264.102.176.139.307.11.395a3.43 3.43 0 0 1-.253-.22 1.741 1.741 0 0 0-.319-.241.877.877 0 0 0-.329-.11c-.234 0-.395.008-.483.022a13.856 13.856 0 0 0-5.16 4.875c.102.102.19.16.264.175.058.015.095.08.11.198a.841.841 0 0 0 .054.241c.022.044.106.022.253-.065.131.117.153.256.066.417.01-.011.205.104.582.345-1.987 2.62-3.154 5.818-3.154 9.27 0 4.4 1.897 8.387 4.97 11.29a16.769 16.769 0 0 1-5.846-5.963c-1.507-2.584-2.261-5.405-2.261-8.465 0-3.06.754-5.88 2.261-8.464a16.787 16.787 0 0 1 6.137-6.137c2.584-1.508 5.405-2.262 8.465-2.262 3.06 0 5.88.754 8.464 2.262a16.75 16.75 0 0 1 5.24 4.751z" opacity=".723"/><path fill="#000" d="M41 22c3.084 0 5.929.76 8.533 2.28a16.924 16.924 0 0 1 6.187 6.187C57.24 33.07 58 35.916 58 39c0 3.084-.76 5.929-2.28 8.533a16.924 16.924 0 0 1-6.187 6.187C46.93 55.24 44.084 56 41 56c-3.084 0-5.929-.76-8.533-2.28a16.924 16.924 0 0 1-6.187-6.187C24.76 44.93 24 42.084 24 39c0-3.084.76-5.929 2.28-8.533a16.924 16.924 0 0 1 6.187-6.187C35.07 22.76 37.916 22 41 22zm6.065 11.533c-.03.014-.1.084-.21.21-.11.125-.21.195-.299.21.03 0 .063-.037.1-.11a3.9 3.9 0 0 0 .11-.244.68.68 0 0 1 .078-.155c.088-.103.25-.214.487-.332.206-.089.59-.177 1.15-.266.503-.118.879-.037 1.13.244-.03-.03.04-.126.21-.288.17-.162.277-.25.32-.266.045-.03.156-.062.333-.1.177-.036.288-.091.332-.165l.044-.487c-.177.015-.306-.037-.387-.155a.936.936 0 0 1-.144-.465c0 .03-.044.089-.133.177 0-.103-.033-.162-.1-.177a.532.532 0 0 0-.254.022c-.103.03-.17.037-.2.022a.869.869 0 0 1-.331-.166c-.074-.066-.133-.188-.177-.365a6.296 6.296 0 0 0-.089-.332.591.591 0 0 0-.21-.232.591.591 0 0 1-.21-.233 2.4 2.4 0 0 1-.056-.122 2.705 2.705 0 0 0-.066-.143.467.467 0 0 0-.089-.122.17.17 0 0 0-.121-.055c-.045 0-.096.036-.155.11a4.325 4.325 0 0 0-.166.222c-.052.073-.085.11-.1.11a.18.18 0 0 0-.133-.033.705.705 0 0 0-.1.022.373.373 0 0 0-.1.067.619.619 0 0 1-.298.143c-.081.015-.144.03-.188.045.221-.074.214-.155-.022-.244-.148-.059-.266-.081-.354-.066.132-.06.188-.148.166-.266a.533.533 0 0 0-.188-.31h.11c-.015-.059-.077-.121-.188-.188-.11-.066-.24-.129-.387-.188a1.906 1.906 0 0 1-.288-.133c-.118-.074-.369-.144-.753-.21-.383-.067-.627-.07-.73-.011-.074.088-.107.166-.1.232a1.5 1.5 0 0 0 .089.31c.051.14.077.233.077.277.015.088-.026.184-.121.288-.096.103-.144.191-.144.265 0 .104.103.218.31.343.206.126.28.284.22.476-.043.118-.161.236-.353.354-.192.118-.31.207-.354.266a.463.463 0 0 0-.034.41c.052.154.13.276.233.365.03.03.04.059.033.088-.007.03-.033.063-.078.1a.99.99 0 0 1-.121.088 2.202 2.202 0 0 1-.144.078l-.067.044c-.162.074-.313.03-.453-.133a1.43 1.43 0 0 1-.3-.575c-.102-.37-.22-.59-.353-.664-.34-.118-.554-.11-.642.022-.074-.192-.377-.384-.908-.576-.369-.132-.797-.162-1.284-.088.089-.015.089-.126 0-.332-.103-.222-.243-.31-.42-.266.044-.088.074-.217.088-.387.015-.17.022-.27.022-.299a1.13 1.13 0 0 1 .266-.51 4.244 4.244 0 0 0 .365-.486c.052-.089.056-.133.011-.133.517.06.886-.022 1.107-.243.074-.074.159-.2.255-.377s.173-.302.232-.376c.133-.089.236-.13.31-.122.074.008.18.048.321.122.14.074.247.11.321.11.207.015.32-.066.343-.243a.48.48 0 0 0-.166-.443c.177.015.2-.11.066-.376a.845.845 0 0 0-.177-.199c-.177-.06-.376-.022-.597.11-.118.06-.104.119.044.178-.015-.015-.085.062-.21.232-.126.17-.247.299-.366.388-.118.088-.236.051-.354-.111a1.786 1.786 0 0 1-.121-.299c-.067-.184-.137-.284-.21-.299-.119 0-.237.11-.355.332.044-.118-.037-.229-.243-.332a1.592 1.592 0 0 0-.532-.177c.28-.177.222-.376-.177-.598-.103-.059-.254-.095-.453-.11-.2-.015-.344.015-.432.088a.596.596 0 0 0-.122.255c-.007.066.03.125.11.177.082.052.16.092.233.122.074.03.159.059.255.088.096.03.158.052.188.067.207.147.266.25.177.31-.03.014-.092.04-.188.077l-.255.1c-.073.03-.118.059-.133.088-.044.06-.044.162 0 .31.045.148.03.25-.044.31-.074-.074-.14-.203-.199-.387-.059-.185-.11-.307-.155-.366.103.133-.081.177-.553.133l-.222-.022c-.059 0-.177.015-.354.044-.177.03-.328.037-.454.022a.412.412 0 0 1-.298-.177c-.06-.118-.06-.265 0-.442.014-.06.044-.074.088-.045a3.317 3.317 0 0 1-.243-.21 2.16 2.16 0 0 0-.222-.188c-.679.221-1.372.524-2.08.907a.545.545 0 0 0 .265-.022c.074-.03.17-.077.288-.144.118-.066.192-.107.221-.121.502-.207.812-.259.93-.155l.11-.11c.207.235.355.42.443.552-.103-.059-.324-.066-.664-.022-.295.089-.457.177-.487.266.104.177.14.31.111.398a3.457 3.457 0 0 1-.255-.22 1.755 1.755 0 0 0-.32-.244.884.884 0 0 0-.333-.111 3.51 3.51 0 0 0-.487.022 13.968 13.968 0 0 0-5.201 4.914c.103.103.191.162.265.177.06.015.096.081.11.2.016.117.034.199.056.243.022.044.107.022.255-.067.133.119.155.259.066.421.015-.015.34.185.974.598.28.25.435.406.465.465.044.162-.03.295-.221.398a1.132 1.132 0 0 0-.2-.2c-.118-.103-.184-.132-.199-.088-.044.074-.04.21.011.41.052.199.13.291.233.276-.104 0-.174.118-.21.355a5.113 5.113 0 0 0-.056.785c0 .288-.007.462-.022.52l.044.023c-.044.177-.003.431.122.763s.284.476.476.432c-.192.044-.044.362.443.952.088.118.147.184.177.2.044.029.132.084.265.165s.244.155.332.221a.944.944 0 0 1 .222.233c.059.074.132.24.221.498s.192.432.31.52c-.03.089.04.236.21.443.17.206.247.376.233.509a.108.108 0 0 0-.056.022.108.108 0 0 1-.055.022c.044.103.159.207.343.31.185.103.299.2.343.288.015.044.03.118.044.221a.814.814 0 0 0 .067.244c.03.059.088.073.177.044.03-.295-.148-.753-.531-1.372a18.187 18.187 0 0 1-.377-.642 1.272 1.272 0 0 1-.121-.343 1.688 1.688 0 0 0-.1-.321c.03 0 .074.01.133.033.059.022.122.048.188.077.066.03.122.06.166.089.044.03.059.051.044.066-.044.103-.03.233.045.388.073.155.162.291.265.41a30.358 30.358 0 0 0 .642.707c.089.089.192.233.31.432.118.2.118.299 0 .299.133 0 .28.074.443.221.162.148.287.295.376.443.074.118.133.31.177.575.044.266.081.443.11.532a.7.7 0 0 0 .189.299c.096.095.188.166.277.21l.354.177.288.155c.073.03.21.107.409.232.2.126.358.21.476.255.148.059.266.088.354.088.089 0 .196-.018.321-.055.126-.037.225-.063.299-.077.221-.03.435.08.642.332.206.25.361.405.465.464.53.28.937.362 1.217.244-.03.015-.026.07.011.166s.096.21.177.343a21.702 21.702 0 0 0 .321.51c.074.088.207.198.399.331.192.133.324.244.398.332.089-.059.14-.125.155-.199-.044.118.007.266.155.443s.28.25.398.221c.207-.044.31-.28.31-.708-.457.221-.819.088-1.084-.399a.431.431 0 0 0-.056-.121 1.41 1.41 0 0 1-.144-.377.314.314 0 0 1 0-.166c.015-.044.052-.066.111-.066.133 0 .207-.026.222-.078.014-.051 0-.144-.045-.276a4.463 4.463 0 0 1-.088-.288c-.015-.118-.096-.266-.244-.443a5.899 5.899 0 0 1-.265-.332c-.074.133-.192.192-.355.177-.162-.015-.28-.08-.354-.199a.61.61 0 0 1-.033.122.527.527 0 0 0-.033.144c-.192 0-.303-.008-.332-.022a2.74 2.74 0 0 0 .055-.388c.022-.214.048-.38.078-.498a1.23 1.23 0 0 1 .121-.266 4.57 4.57 0 0 0 .166-.32 1.09 1.09 0 0 0 .089-.277c.015-.089-.019-.159-.1-.21-.08-.052-.21-.07-.387-.056-.28.015-.472.163-.576.443a4.59 4.59 0 0 0-.066.232.75.75 0 0 1-.11.255.551.551 0 0 1-.2.155c-.103.044-.28.059-.531.044s-.428-.052-.531-.11c-.192-.119-.358-.333-.498-.643s-.21-.582-.21-.819c0-.147.018-.343.055-.586.037-.244.059-.428.066-.553.007-.126-.033-.307-.122-.543.045-.03.111-.1.2-.21.088-.11.162-.188.22-.233a.395.395 0 0 1 .1-.033.226.226 0 0 1 .1 0c.03.008.06-.003.089-.033a.28.28 0 0 0 .066-.133.66.66 0 0 0-.089-.066c-.044-.044-.073-.067-.088-.067.103.045.314.034.63-.033.318-.066.521-.055.61.033.22.163.383.148.487-.044 0-.015-.019-.085-.056-.21-.037-.126-.04-.225-.01-.299.073.398.287.465.641.2.044.044.159.08.343.11.185.03.314.066.388.11.044.03.095.07.154.122.06.052.1.085.122.1.022.015.06.011.11-.011a.667.667 0 0 0 .189-.144c.148.207.236.384.266.531.162.59.302.915.42.974.104.045.185.06.244.045s.092-.085.1-.21a2.147 2.147 0 0 0 0-.31 5.5 5.5 0 0 0-.034-.277l-.022-.177v-.399l-.022-.177c-.222-.044-.358-.133-.41-.266a.475.475 0 0 1 .034-.41c.073-.14.184-.276.332-.409a.723.723 0 0 1 .177-.077c.103-.037.217-.085.343-.144a.995.995 0 0 0 .276-.177c.31-.28.421-.539.332-.775.104 0 .185-.066.244-.199-.015 0-.052-.022-.11-.066a1.618 1.618 0 0 0-.167-.111.3.3 0 0 0-.1-.044c.133-.074.148-.192.045-.355.074-.044.13-.125.166-.243.037-.118.092-.192.166-.221.133.177.288.191.465.044.103-.118.11-.236.022-.354.074-.104.225-.181.454-.233.228-.051.365-.121.41-.21.103.03.162.015.176-.044a1.18 1.18 0 0 0 .022-.266c0-.118.023-.206.067-.265.059-.074.17-.14.332-.2a4.41 4.41 0 0 0 .288-.11l.376-.244c.044-.059.044-.088 0-.088a.801.801 0 0 0 .686-.244c.148-.162.103-.31-.133-.443.045-.088.022-.158-.066-.21a1.158 1.158 0 0 0-.332-.122.802.802 0 0 1 .254-.01c.126.007.203-.004.233-.034.221-.147.17-.266-.155-.354-.25-.074-.568.015-.952.266zm-3.608 19.412c3.04-.53 5.63-1.925 7.77-4.183-.045-.045-.137-.078-.277-.1a.795.795 0 0 1-.277-.077 3.482 3.482 0 0 0-.531-.177.434.434 0 0 0-.055-.288.59.59 0 0 0-.177-.2 11.838 11.838 0 0 0-.277-.177c-.118-.073-.2-.125-.244-.154a2.087 2.087 0 0 0-.155-.133 1.57 1.57 0 0 0-.321-.221c-.08-.045-.143-.06-.188-.045a.777.777 0 0 1-.221.022l-.066.022a.612.612 0 0 0-.122.056 1.813 1.813 0 0 1-.122.066.228.228 0 0 0-.089.067c-.014.022-.014.04 0 .055-.31-.251-.575-.413-.796-.487a.625.625 0 0 1-.244-.122 2.102 2.102 0 0 0-.232-.155.323.323 0 0 0-.222-.033.505.505 0 0 0-.254.155.53.53 0 0 0-.133.332c-.015.148-.03.243-.044.288-.104-.074-.104-.203 0-.388.103-.184.118-.32.044-.41-.044-.088-.122-.12-.232-.099a.74.74 0 0 0-.266.1 4.253 4.253 0 0 0-.255.188c-.103.081-.17.13-.199.144-.03.015-.092.055-.188.122a.745.745 0 0 0-.188.166 1.099 1.099 0 0 0-.133.265 1.34 1.34 0 0 1-.11.244c-.03-.06-.115-.107-.255-.144-.14-.037-.21-.078-.21-.122.029.148.059.406.088.775.03.369.066.65.11.841.104.457.015.812-.265 1.063-.398.368-.612.664-.642.885-.059.325.03.516.266.575 0 .104-.06.255-.177.454-.118.2-.17.358-.155.476 0 .089.015.207.044.354z" opacity=".3"/><path fill="#FFF" d="M41 20c3.084 0 5.929.76 8.533 2.28a16.924 16.924 0 0 1 6.187 6.187C57.24 31.07 58 33.916 58 37c0 3.084-.76 5.929-2.28 8.533a16.924 16.924 0 0 1-6.187 6.187C46.93 53.24 44.084 54 41 54c-3.084 0-5.929-.76-8.533-2.28a16.924 16.924 0 0 1-6.187-6.187C24.76 42.93 24 40.084 24 37c0-3.084.76-5.929 2.28-8.533a16.924 16.924 0 0 1 6.187-6.187C35.07 20.76 37.916 20 41 20zm6.065 11.533c-.03.014-.1.084-.21.21-.11.125-.21.195-.299.21.03 0 .063-.037.1-.11a3.9 3.9 0 0 0 .11-.244.68.68 0 0 1 .078-.155c.088-.103.25-.214.487-.332.206-.089.59-.177 1.15-.266.503-.118.879-.037 1.13.244-.03-.03.04-.126.21-.288.17-.162.277-.25.32-.266.045-.03.156-.062.333-.1.177-.036.288-.091.332-.165l.044-.487c-.177.015-.306-.037-.387-.155a.936.936 0 0 1-.144-.465c0 .03-.044.089-.133.177 0-.103-.033-.162-.1-.177a.532.532 0 0 0-.254.022c-.103.03-.17.037-.2.022a.869.869 0 0 1-.331-.166c-.074-.066-.133-.188-.177-.365a6.296 6.296 0 0 0-.089-.332.591.591 0 0 0-.21-.232.591.591 0 0 1-.21-.233 2.4 2.4 0 0 1-.056-.122 2.705 2.705 0 0 0-.066-.143.467.467 0 0 0-.089-.122.17.17 0 0 0-.121-.055c-.045 0-.096.036-.155.11a4.325 4.325 0 0 0-.166.222c-.052.073-.085.11-.1.11a.18.18 0 0 0-.133-.033.705.705 0 0 0-.1.022.373.373 0 0 0-.1.067.619.619 0 0 1-.298.143c-.081.015-.144.03-.188.045.221-.074.214-.155-.022-.244-.148-.059-.266-.081-.354-.066.132-.06.188-.148.166-.266a.533.533 0 0 0-.188-.31h.11c-.015-.059-.077-.121-.188-.188-.11-.066-.24-.129-.387-.188a1.906 1.906 0 0 1-.288-.133c-.118-.074-.369-.144-.753-.21-.383-.067-.627-.07-.73-.011-.074.088-.107.166-.1.232a1.5 1.5 0 0 0 .089.31c.051.14.077.233.077.277.015.088-.026.184-.121.288-.096.103-.144.191-.144.265 0 .104.103.218.31.343.206.126.28.284.22.476-.043.118-.161.236-.353.354-.192.118-.31.207-.354.266a.463.463 0 0 0-.034.41c.052.154.13.276.233.365.03.03.04.059.033.088-.007.03-.033.063-.078.1a.99.99 0 0 1-.121.088 2.202 2.202 0 0 1-.144.078l-.067.044c-.162.074-.313.03-.453-.133a1.43 1.43 0 0 1-.3-.575c-.102-.37-.22-.59-.353-.664-.34-.118-.554-.11-.642.022-.074-.192-.377-.384-.908-.576-.369-.132-.797-.162-1.284-.088.089-.015.089-.126 0-.332-.103-.222-.243-.31-.42-.266.044-.088.074-.217.088-.387.015-.17.022-.27.022-.299a1.13 1.13 0 0 1 .266-.51 4.244 4.244 0 0 0 .365-.486c.052-.089.056-.133.011-.133.517.06.886-.022 1.107-.243.074-.074.159-.2.255-.377s.173-.302.232-.376c.133-.089.236-.13.31-.122.074.008.18.048.321.122.14.074.247.11.321.11.207.015.32-.066.343-.243a.48.48 0 0 0-.166-.443c.177.015.2-.11.066-.376a.845.845 0 0 0-.177-.199c-.177-.06-.376-.022-.597.11-.118.06-.104.119.044.178-.015-.015-.085.062-.21.232-.126.17-.247.299-.366.388-.118.088-.236.051-.354-.111a1.786 1.786 0 0 1-.121-.299c-.067-.184-.137-.284-.21-.299-.119 0-.237.11-.355.332.044-.118-.037-.229-.243-.332a1.592 1.592 0 0 0-.532-.177c.28-.177.222-.376-.177-.598-.103-.059-.254-.095-.453-.11-.2-.015-.344.015-.432.088a.596.596 0 0 0-.122.255c-.007.066.03.125.11.177.082.052.16.092.233.122.074.03.159.059.255.088.096.03.158.052.188.067.207.147.266.25.177.31-.03.014-.092.04-.188.077l-.255.1c-.073.03-.118.059-.133.088-.044.06-.044.162 0 .31.045.148.03.25-.044.31-.074-.074-.14-.203-.199-.387-.059-.185-.11-.307-.155-.366.103.133-.081.177-.553.133l-.222-.022c-.059 0-.177.015-.354.044-.177.03-.328.037-.454.022a.412.412 0 0 1-.298-.177c-.06-.118-.06-.265 0-.442.014-.06.044-.074.088-.045a3.317 3.317 0 0 1-.243-.21 2.16 2.16 0 0 0-.222-.188c-.679.221-1.372.524-2.08.907a.545.545 0 0 0 .265-.022c.074-.03.17-.077.288-.144.118-.066.192-.107.221-.121.502-.207.812-.259.93-.155l.11-.11c.207.235.355.42.443.552-.103-.059-.324-.066-.664-.022-.295.089-.457.177-.487.266.104.177.14.31.111.398a3.457 3.457 0 0 1-.255-.22 1.755 1.755 0 0 0-.32-.244.884.884 0 0 0-.333-.111 3.51 3.51 0 0 0-.487.022 13.968 13.968 0 0 0-5.201 4.914c.103.103.191.162.265.177.06.015.096.081.11.2.016.117.034.199.056.243.022.044.107.022.255-.067.133.119.155.259.066.421.015-.015.34.185.974.598.28.25.435.406.465.465.044.162-.03.295-.221.398a1.132 1.132 0 0 0-.2-.2c-.118-.103-.184-.132-.199-.088-.044.074-.04.21.011.41.052.199.13.291.233.276-.104 0-.174.118-.21.355a5.113 5.113 0 0 0-.056.785c0 .288-.007.462-.022.52l.044.023c-.044.177-.003.431.122.763s.284.476.476.432c-.192.044-.044.362.443.952.088.118.147.184.177.2.044.029.132.084.265.165s.244.155.332.221a.944.944 0 0 1 .222.233c.059.074.132.24.221.498s.192.432.31.52c-.03.089.04.236.21.443.17.206.247.376.233.509a.108.108 0 0 0-.056.022.108.108 0 0 1-.055.022c.044.103.159.207.343.31.185.103.299.2.343.288.015.044.03.118.044.221a.814.814 0 0 0 .067.244c.03.059.088.073.177.044.03-.295-.148-.753-.531-1.372a18.187 18.187 0 0 1-.377-.642 1.272 1.272 0 0 1-.121-.343 1.688 1.688 0 0 0-.1-.321c.03 0 .074.01.133.033.059.022.122.048.188.077.066.03.122.06.166.089.044.03.059.051.044.066-.044.103-.03.233.045.388.073.155.162.291.265.41a30.358 30.358 0 0 0 .642.707c.089.089.192.233.31.432.118.2.118.299 0 .299.133 0 .28.074.443.221.162.148.287.295.376.443.074.118.133.31.177.575.044.266.081.443.11.532a.7.7 0 0 0 .189.299c.096.095.188.166.277.21l.354.177.288.155c.073.03.21.107.409.232.2.126.358.21.476.255.148.059.266.088.354.088.089 0 .196-.018.321-.055.126-.037.225-.063.299-.077.221-.03.435.08.642.332.206.25.361.405.465.464.53.28.937.362 1.217.244-.03.015-.026.07.011.166s.096.21.177.343a21.702 21.702 0 0 0 .321.51c.074.088.207.198.399.331.192.133.324.244.398.332.089-.059.14-.125.155-.199-.044.118.007.266.155.443s.28.25.398.221c.207-.044.31-.28.31-.708-.457.221-.819.088-1.084-.399a.431.431 0 0 0-.056-.121 1.41 1.41 0 0 1-.144-.377.314.314 0 0 1 0-.166c.015-.044.052-.066.111-.066.133 0 .207-.026.222-.078.014-.051 0-.144-.045-.276a4.463 4.463 0 0 1-.088-.288c-.015-.118-.096-.266-.244-.443a5.899 5.899 0 0 1-.265-.332c-.074.133-.192.192-.355.177-.162-.015-.28-.08-.354-.199a.61.61 0 0 1-.033.122.527.527 0 0 0-.033.144c-.192 0-.303-.008-.332-.022a2.74 2.74 0 0 0 .055-.388c.022-.214.048-.38.078-.498a1.23 1.23 0 0 1 .121-.266 4.57 4.57 0 0 0 .166-.32 1.09 1.09 0 0 0 .089-.277c.015-.089-.019-.159-.1-.21-.08-.052-.21-.07-.387-.056-.28.015-.472.163-.576.443a4.59 4.59 0 0 0-.066.232.75.75 0 0 1-.11.255.551.551 0 0 1-.2.155c-.103.044-.28.059-.531.044s-.428-.052-.531-.11c-.192-.119-.358-.333-.498-.643s-.21-.582-.21-.819c0-.147.018-.343.055-.586.037-.244.059-.428.066-.553.007-.126-.033-.307-.122-.543.045-.03.111-.1.2-.21.088-.11.162-.188.22-.233a.395.395 0 0 1 .1-.033.226.226 0 0 1 .1 0c.03.008.06-.003.089-.033a.28.28 0 0 0 .066-.133.66.66 0 0 0-.089-.066c-.044-.044-.073-.067-.088-.067.103.045.314.034.63-.033.318-.066.521-.055.61.033.22.163.383.148.487-.044 0-.015-.019-.085-.056-.21-.037-.126-.04-.225-.01-.299.073.398.287.465.641.2.044.044.159.08.343.11.185.03.314.066.388.11.044.03.095.07.154.122.06.052.1.085.122.1.022.015.06.011.11-.011a.667.667 0 0 0 .189-.144c.148.207.236.384.266.531.162.59.302.915.42.974.104.045.185.06.244.045s.092-.085.1-.21a2.147 2.147 0 0 0 0-.31 5.5 5.5 0 0 0-.034-.277l-.022-.177v-.399l-.022-.177c-.222-.044-.358-.133-.41-.266a.475.475 0 0 1 .034-.41c.073-.14.184-.276.332-.409a.723.723 0 0 1 .177-.077c.103-.037.217-.085.343-.144a.995.995 0 0 0 .276-.177c.31-.28.421-.539.332-.775.104 0 .185-.066.244-.199-.015 0-.052-.022-.11-.066a1.618 1.618 0 0 0-.167-.111.3.3 0 0 0-.1-.044c.133-.074.148-.192.045-.355.074-.044.13-.125.166-.243.037-.118.092-.192.166-.221.133.177.288.191.465.044.103-.118.11-.236.022-.354.074-.104.225-.181.454-.233.228-.051.365-.121.41-.21.103.03.162.015.176-.044a1.18 1.18 0 0 0 .022-.266c0-.118.023-.206.067-.265.059-.074.17-.14.332-.2a4.41 4.41 0 0 0 .288-.11l.376-.244c.044-.059.044-.088 0-.088a.801.801 0 0 0 .686-.244c.148-.162.103-.31-.133-.443.045-.088.022-.158-.066-.21a1.158 1.158 0 0 0-.332-.122.802.802 0 0 1 .254-.01c.126.007.203-.004.233-.034.221-.147.17-.266-.155-.354-.25-.074-.568.015-.952.266zm-3.608 19.412c3.04-.53 5.63-1.925 7.77-4.183-.045-.045-.137-.078-.277-.1a.795.795 0 0 1-.277-.077 3.482 3.482 0 0 0-.531-.177.434.434 0 0 0-.055-.288.59.59 0 0 0-.177-.2 11.838 11.838 0 0 0-.277-.177c-.118-.073-.2-.125-.244-.154a2.087 2.087 0 0 0-.155-.133 1.57 1.57 0 0 0-.321-.221c-.08-.045-.143-.06-.188-.045a.777.777 0 0 1-.221.022l-.066.022a.612.612 0 0 0-.122.056 1.813 1.813 0 0 1-.122.066.228.228 0 0 0-.089.067c-.014.022-.014.04 0 .055-.31-.251-.575-.413-.796-.487a.625.625 0 0 1-.244-.122 2.102 2.102 0 0 0-.232-.155.323.323 0 0 0-.222-.033.505.505 0 0 0-.254.155.53.53 0 0 0-.133.332c-.015.148-.03.243-.044.288-.104-.074-.104-.203 0-.388.103-.184.118-.32.044-.41-.044-.088-.122-.12-.232-.099a.74.74 0 0 0-.266.1 4.253 4.253 0 0 0-.255.188c-.103.081-.17.13-.199.144-.03.015-.092.055-.188.122a.745.745 0 0 0-.188.166 1.099 1.099 0 0 0-.133.265 1.34 1.34 0 0 1-.11.244c-.03-.06-.115-.107-.255-.144-.14-.037-.21-.078-.21-.122.029.148.059.406.088.775.03.369.066.65.11.841.104.457.015.812-.265 1.063-.398.368-.612.664-.642.885-.059.325.03.516.266.575 0 .104-.06.255-.177.454-.118.2-.17.358-.155.476 0 .089.015.207.044.354z"/></g></g></svg>