<svg xmlns="http://www.w3.org/2000/svg" xmlns:xlink="http://www.w3.org/1999/xlink" width="70" height="70" viewBox="0 0 70 70"><defs><path id="a" d="M4 0h61c4 0 5 1 5 5v60c0 4-1 5-5 5H4c-3 0-4-1-4-5V5c0-4 1-5 4-5z"/><linearGradient id="c" x1="100%" x2="0%" y1="0%" y2="100%"><stop offset="0%" stop-color="#94B6C8"/><stop offset="100%" stop-color="#6A9EBA"/></linearGradient></defs><g fill="none" fill-rule="evenodd"><mask id="b" fill="#fff"><use xlink:href="#a"/></mask><g mask="url(#b)"><path fill="url(#c)" d="M0 0H70V70H0z"/><path fill="#FFF" fill-opacity=".383" d="M4 1h61c2.667 0 4.333.667 5 2V0H0v3c.667-1.333 2-2 4-2z"/><path fill="#393939" d="M46 69H4c-2 0-4-1-4-4V35L25.742 9.074v20.238L35 20.07l3.27 7.896 8.08-8.22L53 46l-6 7h8v4l-9 12z" opacity=".324"/><path fill="#000" fill-opacity=".383" d="M4 69h61c2.667 0 4.333-1 5-3v4H0v-4c.667 2 2 3 4 3z"/><path fill="#000" fill-rule="nonzero" d="M39 26L24 42l10-16 .94-4c.567-.971 1.493-.973 2.06 0l2 4zm7.481-4.539c.842-.804 1.713-.53 1.935.61L53 48.534l-15.197 9.048c-.532.291-1.94.418-1.94.418s-1.286-.153-1.776-.423L19 48.751l27.481-27.29zM33 23.646L20 46l5.236-34.056c.23-1.155.92-1.266 1.537-.247L33 23.646zm14.808 31.862h-1.284v-.792h3.51v.792H48.75V59h-.942v-3.492zm2.718-.792h1.326l1.002 2.946h.012l.948-2.946h1.326V59h-.882v-3.036h-.012L53.196 59h-.726l-1.05-3.006h-.012V59h-.882v-4.284z" opacity=".3"/><path fill="#FFF" fill-rule="nonzero" d="M39 24L24 40l10-16 .94-4c.567-.971 1.493-.973 2.06 0l2 4zm7.481-4.539c.842-.804 1.713-.53 1.935.61L53 46.534l-15.197 9.048c-.532.291-1.94.418-1.94.418s-1.286-.153-1.776-.423L19 46.751l27.481-27.29zM33 21.646L20 44l5.236-34.056c.23-1.155.92-1.266 1.537-.247L33 21.646zm14.808 31.862h-1.284v-.792h3.51v.792H48.75V57h-.942v-3.492zm2.718-.792h1.326l1.002 2.946h.012l.948-2.946h1.326V57h-.882v-3.036h-.012L53.196 57h-.726l-1.05-3.006h-.012V57h-.882v-4.284z"/></g></g></svg>